<?xml version="1.0" encoding="UTF-8" standalone="no"?>
<svg
   xmlns:dc="http://purl.org/dc/elements/1.1/"
   xmlns:cc="http://creativecommons.org/ns#"
   xmlns:rdf="http://www.w3.org/1999/02/22-rdf-syntax-ns#"
   xmlns:svg="http://www.w3.org/2000/svg"
   xmlns="http://www.w3.org/2000/svg"
   xmlns:sodipodi="http://sodipodi.sourceforge.net/DTD/sodipodi-0.dtd"
   xmlns:inkscape="http://www.inkscape.org/namespaces/inkscape"
   width="1047.4695"
   height="499.29776"
   viewBox="0 0 1050.9265 500.29836"
   version="1.1"
   id="svg41"
   sodipodi:docname="cbf-logo-selecao-brasileira.svg"
   inkscape:version="0.92.2 (5c3e80d, 2017-08-06)">
  <metadata
     id="metadata47">
    <rdf:RDF>
      <cc:Work
         rdf:about="">
        <dc:format>image/svg+xml</dc:format>
        <dc:type
           rdf:resource="http://purl.org/dc/dcmitype/StillImage" />
        <dc:title></dc:title>
      </cc:Work>
    </rdf:RDF>
  </metadata>
  <defs
     id="defs45" />
  <sodipodi:namedview
     pagecolor="#ffffff"
     bordercolor="#666666"
     borderopacity="1"
     objecttolerance="10"
     gridtolerance="10"
     guidetolerance="10"
     inkscape:pageopacity="0"
     inkscape:pageshadow="2"
     inkscape:window-width="1600"
     inkscape:window-height="837"
     id="namedview43"
     showgrid="false"
     fit-margin-top="0"
     fit-margin-left="0"
     fit-margin-right="0"
     fit-margin-bottom="0"
     inkscape:zoom="0.47294589"
     inkscape:cx="426.21433"
     inkscape:cy="455.88707"
     inkscape:window-x="-8"
     inkscape:window-y="-8"
     inkscape:window-maximized="1"
     inkscape:current-layer="surface1-5" />
  <g
     id="surface1"
     transform="translate(-0.550781,1.2393567)"
     inkscape:export-filename="G:\Users\suitedoalex\sites\cbf-logo-selecao-logo-brasil-11.png"
     inkscape:export-xdpi="127.27071"
     inkscape:export-ydpi="127.27071">
    <path
       style="fill:#ffd100;fill-opacity:1;fill-rule:evenodd;stroke:none"
       d="m 123.75391,85.757812 c -6.32422,2.40625 -12.29297,5.511719 -17.98828,9.058594 C 91.972656,103.39063 79.792969,114.34766 67.035156,124.23438 55.214844,133.39453 43.132812,141.48047 29.238281,147 c 1.335938,2.20312 2.539063,4.48047 3.59375,6.85156 6.683594,15.05078 6.4375,34.15235 6.417969,50.24219 -0.02734,24.03125 0.09375,48.05469 0.125,72.08984 0.01563,11.92969 0.179688,24.125 1.257812,36.01563 0.371094,4.08594 1.191407,12.6914 3.066407,16.39453 l 0.175781,0.33203 0.128906,0.35156 c 5.464844,14.75391 14.78125,26.375 29.703125,33.23828 18.148438,7.21875 36.624999,15.03125 53.800779,24.17579 7.75391,4.1289 17.15235,9.5 24.39844,15.625 7.24609,-6.125 16.64844,-11.4961 24.40625,-15.625 17.17187,-9.14454 35.65234,-16.95704 53.80078,-24.17579 14.92188,-6.86328 24.23438,-18.48437 29.70313,-33.23828 l 0.1289,-0.35156 0.16797,-0.33203 c 1.88281,-3.70313 2.69922,-12.30859 3.07031,-16.39453 1.08203,-11.89063 1.2461,-24.08594 1.25782,-36.01563 0.0312,-24.03515 0.15234,-48.05859 0.12109,-72.08984 -0.0195,-16.08984 -0.26172,-35.19141 6.42578,-50.24219 1.04688,-2.37109 2.25391,-4.64844 3.59375,-6.85156 -13.89453,-5.51953 -25.98047,-13.60547 -37.79687,-22.76562 -12.75782,-9.88672 -24.9375,-20.84375 -38.73438,-29.417974 -5.69531,-3.546875 -11.66016,-6.652344 -17.98828,-9.058594 -9.10156,-1.734374 -18.74219,-3.03125 -28.02734,-2.871093 h -0.25391 C 142.5,82.726562 132.85547,84.023438 123.75391,85.757812"
       id="path2"
       inkscape:connector-curvature="0" />
    <path
       style="fill:#005aff;fill-opacity:1;fill-rule:evenodd;stroke:none"
       d="m 126.92969,96.625 c -5.61328,2.234375 -10.90625,5.12891 -15.96094,8.42578 -12.238281,7.98047 -23.046875,18.17969 -34.363281,27.37891 -10.484375,8.52734 -21.210938,16.05468 -33.535157,21.1914 1.183594,2.05078 2.257813,4.17188 3.1875,6.37891 5.929688,14.00391 5.714844,31.78516 5.699219,46.76172 -0.02734,22.36719 0.07813,44.72656 0.105469,67.09375 0.01563,11.10547 0.15625,22.45703 1.117188,33.52344 0.328124,3.79687 1.058593,11.8125 2.726562,15.2539 l 0.148438,0.3125 0.113281,0.32422 c 4.851562,13.73438 13.117187,24.55078 26.355469,30.94141 16.101562,6.71875 32.496092,13.98828 47.738282,22.49609 6.875,3.84766 15.21875,8.84375 21.64453,14.54297 6.43359,-5.69922 14.76953,-10.69531 21.65234,-14.54297 15.23828,-8.50781 31.63282,-15.77734 47.73438,-22.49609 13.24219,-6.39063 21.50781,-17.20703 26.35547,-30.94141 l 0.11718,-0.32422 0.14844,-0.3125 c 1.66797,-3.4414 2.39453,-11.45703 2.72266,-15.2539 0.95703,-11.06641 1.10547,-22.41797 1.12109,-33.52344 0.0273,-22.36719 0.13281,-44.72656 0.10547,-67.09375 -0.0195,-14.97656 -0.23437,-32.75781 5.69531,-46.76172 0.9336,-2.20703 2.00391,-4.32813 3.19141,-6.37891 -12.33203,-5.13672 -23.05078,-12.66406 -33.53906,-21.1914 -11.31641,-9.19922 -22.125,-19.39844 -34.35938,-27.37891 C 187.79687,101.75391 182.5,98.859375 176.88672,96.625 168.81641,95.011719 160.25781,93.796875 152.01953,93.945312 l -0.11328,0.0039 -0.10938,-0.0039 C 143.5625,93.796875 135.00391,95.011719 126.92969,96.625"
       id="path4"
       inkscape:connector-curvature="0" />
    <path
       style="fill:#029c55;fill-opacity:1;fill-rule:evenodd;stroke:none"
       d="m 127.89844,375.41016 c 0.79297,0.42968 1.57812,0.85937 2.36328,1.29687 6.875,3.84766 15.21875,8.84375 21.64453,14.54297 v -95.5 h -24.00781 v 79.66016"
       id="path6"
       inkscape:connector-curvature="0" />
    <path
       style="fill:#029c55;fill-opacity:1;fill-rule:evenodd;stroke:none"
       d="m 175.91797,96.429688 c -7.78906,-1.515626 -15.99219,-2.625 -23.89844,-2.484376 l -0.11328,0.0039 V 164.9453 h 24.01172 V 96.429688"
       id="path8"
       inkscape:connector-curvature="0" />
    <path
       style="fill:#009c54;fill-opacity:1;fill-rule:evenodd;stroke:none"
       d="m 51.953125,208.20703 c -0.0078,7.98047 0.0039,15.95703 0.01953,23.93359 H 82.277344 V 208.20703 H 51.953125"
       id="path10"
       inkscape:connector-curvature="0" />
    <path
       style="fill:#009c54;fill-opacity:1;fill-rule:evenodd;stroke:none"
       d="m 251.78906,256.08203 c 0.0195,-7.98047 0.043,-15.96094 0.0586,-23.94141 h -34.08204 v 23.94141 h 34.02344"
       id="path12"
       inkscape:connector-curvature="0" />
    <path
       style="fill:#1e175e;fill-opacity:1;fill-rule:evenodd;stroke:none"
       d="m 28.660156,206.75391 c -0.8125,-34.94141 -5.453125,-50.04297 -26.644531,-67.88672 53.695313,-2.02735 74.84375,-51.726565 123.136715,-66.000002 0.92188,-0.191407 1.83985,-0.371094 2.7461,-0.535157 v 17.785157 c -0.90235,0.167968 -1.81641,0.347656 -2.7461,0.535156 -34.421871,13.453126 -54.484371,48.105466 -91.578121,59.843746 10.742187,14.57813 12.320312,26.3711 12.160156,56.25782 l 0.03906,25.38671 H 29.105469 c -0.09766,-7.57421 -0.242188,-15.99218 -0.445313,-25.38671 z M 151.90625,70.644531 c 8.45312,-0.464843 17.37109,0.273438 26.75781,2.222657 48.29297,14.273437 69.44141,63.972652 123.13281,66.000002 -21.1875,17.84375 -25.82812,32.94531 -26.64453,67.88672 l -0.0273,1.45312 h -17.04297 l 0.004,-1.45312 c -0.16016,-29.88672 1.41797,-41.67969 12.15625,-56.25782 C 233.14857,138.75781 213.08607,104.10547 178.66419,90.652344 168.422,88.574219 159.50404,87.609375 151.90638,87.746094 Z M 274.71094,232.14062 c -0.8125,61.88282 1.21484,67.33204 -3.01563,86.34766 -1.98437,10.98438 -5.8164,20.875 -11.48828,29.67188 -10.16016,18.29687 -28.22656,30.89062 -54.19141,37.78515 -11.69531,4.75 -21.73046,9.84766 -30.09765,15.28906 v -18.72656 c 12.07422,-6.79687 28.04687,-14.34375 47.92969,-22.64062 14.01953,-6.71094 23.91015,-18.22266 29.67187,-34.53907 2.9375,-6.0664 4.42578,-23.22265 4.45703,-51.46484 l 0.0664,-41.72266 z M 166.07422,408.42187 c -0.22656,0.1875 -0.44922,0.375 -0.67578,0.56641 0.22656,-0.19141 0.44922,-0.37891 0.67578,-0.56641 z m -0.70703,0.59375 c -0.47266,0.39844 -0.9375,0.79688 -1.39453,1.19922 0.45703,-0.40234 0.92187,-0.80078 1.39453,-1.19922 z M 162.5,411.54297 c -0.21094,0.19531 -0.41797,0.38672 -0.62109,0.58203 0.20312,-0.19531 0.41015,-0.38672 0.62109,-0.58203 z m -1.32813,1.2539 c -0.19531,0.1875 -0.38281,0.375 -0.57421,0.5625 0.1914,-0.1875 0.3789,-0.375 0.57421,-0.5625 z m -0.64453,0.62891 c -0.1875,0.1875 -0.375,0.37891 -0.5625,0.57031 0.1875,-0.1914 0.375,-0.38281 0.5625,-0.57031 z m -2.47656,2.57813 c -0.17578,0.1914 -0.34766,0.38671 -0.52344,0.58203 0.17578,-0.19532 0.34766,-0.39063 0.52344,-0.58203 z m -0.56641,0.6289 c -0.17968,0.20313 -0.35937,0.40625 -0.53515,0.60938 0.17578,-0.20313 0.35547,-0.40625 0.53515,-0.60938 z m -0.57421,0.65625 c -0.55079,0.62891 -1.07813,1.26172 -1.58594,1.90235 0.50781,-0.64063 1.03515,-1.27344 1.58594,-1.90235 z m -1.64063,1.96875 c -0.16797,0.20703 -0.33203,0.41406 -0.49219,0.6211 0.16016,-0.20704 0.32422,-0.41407 0.49219,-0.6211 z m -0.50781,0.64063 c -0.16016,0.20312 -0.3125,0.40625 -0.46875,0.60937 0.15625,-0.20312 0.30859,-0.40625 0.46875,-0.60937 z m -1.02344,1.36328 c -0.14844,0.19531 -0.28906,0.39062 -0.42969,0.58594 z m -0.47266,0.64844 c -0.14453,0.19921 -0.28125,0.39843 -0.41796,0.59765 0.13671,-0.19922 0.27734,-0.39844 0.41796,-0.59765 z m -0.48828,0.69921 c -0.14062,0.19922 -0.27734,0.40235 -0.41406,0.60547 0.13672,-0.20312 0.27344,-0.40625 0.41406,-0.60547 z m -0.4414,0.64454 c -0.14453,0.21484 -0.28907,0.4375 -0.42969,0.65234 C 142.53906,409.44141 124.50391,396.78906 97.804688,385.94531 71.832031,379.05078 53.769531,366.45703 43.609375,348.16016 37.9375,339.36328 34.105469,329.47266 32.121094,318.48828 28.523438,302.28125 29.460938,295.92187 29.3125,256.08203 h 16.5 l 0.02734,17.78125 c 0.03516,28.24219 1.519531,45.39844 4.460937,51.46484 5.761719,16.31641 15.648438,27.82813 29.667969,34.53907 39.019534,16.27734 62.996094,29.67578 71.937504,40.18359 v 23.85547 c 0.14062,-0.21484 0.28516,-0.4375 0.42969,-0.65234"
       id="path14"
       inkscape:connector-curvature="0" />
    <path
       style="fill:#ffd100;fill-opacity:1;fill-rule:evenodd;stroke:none"
       d="m 78.167969,256.08203 v -23.94141 h -49.0625 c 0.121093,9.14063 0.179687,17.03516 0.207031,23.94141 h 48.855469"
       id="path16"
       inkscape:connector-curvature="0" />
    <path
       style="fill:#ffd100;fill-opacity:1;fill-rule:evenodd;stroke:none"
       d="m 266.73047,208.20703 h -43.13281 v 23.93359 h 51.11328 c 0.0937,-7.17578 0.22656,-15.125 0.41406,-23.93359 h -8.39453"
       id="path18"
       inkscape:connector-curvature="0" />
    <path
       style="fill:#ffd100;fill-opacity:1;fill-rule:evenodd;stroke:none"
       d="m 127.89844,161.86719 h 24.00781 V 70.644531 c -7.62109,-0.417969 -15.62109,0.140625 -24.00781,1.6875 v 89.535159"
       id="path20"
       inkscape:connector-curvature="0" />
    <path
       style="fill:#ffd100;fill-opacity:1;fill-rule:evenodd;stroke:none"
       d="m 175.91797,391.48828 v -87.70312 h -24.01172 v 120.12109 c 5.26953,-8.13281 13.26953,-15.6875 24.01172,-22.67188 v -9.74609"
       id="path22"
       inkscape:connector-curvature="0" />
    <path
       style="fill:#fffdff;fill-opacity:1;fill-rule:evenodd;stroke:none"
       d="m 102.42969,155.88281 h 98.95703 l -25.46875,28.55469 v 23.76953 h 23.83984 l 28.64063,-25.39453 v 98.66016 l -28.64063,-25.39063 h -23.83984 v 23.76563 l 25.46875,28.55468 h -98.95703 l 25.46875,-28.55468 V 256.08203 H 104.05859 L 75.421875,281.47266 V 182.8125 l 28.636715,25.39453 h 23.83985 V 184.4375 l -25.46875,-28.55469"
       id="path24"
       inkscape:connector-curvature="0" />
    <path
       style="fill:#009c54;fill-opacity:1;fill-rule:evenodd;stroke:none"
       d="m 151.90625,0.5 5.82812,17.996094 18.96485,-0.03516 -15.36328,11.082031 5.89843,17.972656 L 151.90625,36.375 136.58594,47.515625 142.48437,29.542969 127.11719,18.460938 146.08203,18.496094 151.90625,0.5"
       id="path26"
       inkscape:connector-curvature="0" />
    <path
       style="fill:#009c54;fill-opacity:1;fill-rule:evenodd;stroke:none"
       d="m 82.28125,15.714844 5.824219,18 18.968751,-0.03516 L 91.707031,44.761719 97.605469,62.738281 82.28125,51.589844 66.957031,62.738281 72.855469,44.761719 57.488281,33.679688 l 18.96875,0.03516 5.824219,-18"
       id="path28"
       inkscape:connector-curvature="0" />
    <path
       style="fill:#009c54;fill-opacity:1;fill-rule:evenodd;stroke:none"
       d="m 25.34375,59.148438 5.824219,17.996093 18.96875,-0.03516 L 34.769531,88.191406 40.664062,106.16406 25.34375,95.023438 10.023438,106.16406 15.917969,88.191406 0.550781,77.109375 19.515625,77.144531 25.34375,59.148438"
       id="path30"
       inkscape:connector-curvature="0" />
    <path
       style="fill:#009c54;fill-opacity:1;fill-rule:evenodd;stroke:none"
       d="m 221.53516,15.714844 -5.82422,18 -18.96485,-0.03516 15.36328,11.082031 -5.89453,17.976562 15.32032,-11.148437 15.32812,11.148437 -5.89844,-17.976562 15.36719,-11.082031 -18.96875,0.03516 -5.82812,-18"
       id="path32"
       inkscape:connector-curvature="0" />
    <path
       style="fill:#009c54;fill-opacity:1;fill-rule:evenodd;stroke:none"
       d="m 278.47656,59.148438 -5.82422,17.996093 -18.96875,-0.03516 15.36328,11.082031 -5.89453,17.972658 15.32422,-11.140626 15.32031,11.140626 -5.89453,-17.972658 15.36328,-11.082031 -18.96093,0.03516 -5.82813,-17.996093"
       id="path34"
       inkscape:connector-curvature="0" />
    <path
       style="fill:#211c5e;fill-opacity:1;fill-rule:nonzero;stroke:none"
       d="m 112.26953,234.48437 c 0,1.91797 0.11719,3.47657 0.34766,4.6836 0.23047,1.20312 0.66406,2.15625 1.30859,2.84765 0.63672,0.69141 1.51172,1.16407 2.61328,1.41016 1.10157,0.25 2.50782,0.37109 4.21485,0.37109 0.57031,0 1.16797,0 1.79297,0 0.62109,0 1.3125,0 2.07812,0 0.76563,0 1.64453,-0.008 2.64453,-0.0234 0.99219,-0.0195 2.15234,-0.0469 3.46875,-0.082 l -1.44141,7.39843 c -2.20703,0.0703 -3.96874,0.10547 -5.28124,0.10547 -1.32032,0 -2.56641,0 -3.73829,0 -3.16796,0 -5.84765,-0.29297 -8.03125,-0.875 -2.1914,-0.58984 -3.96093,-1.53906 -5.3164,-2.85156 -1.35156,-1.3125 -2.32031,-3.04297 -2.90625,-5.1875 -0.58594,-2.14844 -0.88281,-4.80078 -0.88281,-7.95703 v -4.41797 c 0,-3.12109 0.3125,-5.74219 0.93359,-7.87109 0.625,-2.13282 1.61328,-3.86329 2.96484,-5.19141 1.35157,-1.33203 3.1211,-2.28906 5.3125,-2.87109 2.1836,-0.58985 4.82813,-0.88282 7.92578,-0.88282 0.53125,0 1.1211,0 1.75782,0 0.64453,0 1.36328,0 2.16406,0 0.80078,0 1.70703,0.0117 2.72266,0.0273 1.01171,0.0195 2.17968,0.043 3.49609,0.082 l -1.44141,7.39453 c -1.3164,-0.0352 -2.69531,-0.0625 -4.13672,-0.0781 -1.4414,-0.0195 -2.83984,-0.0273 -4.1914,-0.0273 -1.74219,0 -3.15625,0.125 -4.24219,0.37109 -1.08594,0.25391 -1.94141,0.71094 -2.5625,1.38672 -0.625,0.67188 -1.03906,1.61328 -1.25391,2.82032 -0.21093,1.20703 -0.32031,2.78515 -0.32031,4.73437 z m 24.98438,-21.28515 h 17.45703 c 3.98828,0 6.89453,0.78125 8.72656,2.33984 1.83203,1.5625 2.75,3.92188 2.75,7.07813 v 0.58593 c 0,3.90235 -1.56641,6.51172 -4.69531,7.82422 1.8125,0.60157 3.22656,1.61328 4.24218,3.03125 1.01172,1.41797 1.52344,3.30078 1.52344,5.64063 v 0.96094 c 0,3.65234 -1.11328,6.30468 -3.33984,7.95312 -2.22266,1.65234 -5.45313,2.47656 -9.6875,2.47656 h -16.97656 z m 8.27734,31.18359 h 8.05859 c 1.88672,0 3.21485,-0.30859 3.97657,-0.92969 0.76562,-0.625 1.14843,-1.76562 1.14843,-3.43359 v -0.69141 c 0,-1.70312 -0.39843,-2.88281 -1.20312,-3.53906 -0.79688,-0.65625 -2.17578,-0.98437 -4.13672,-0.98437 h -7.84375 z m 0,-24.48047 v 8.25 h 7.41797 c 1.74219,0 2.97265,-0.32031 3.6875,-0.95703 0.70703,-0.64062 1.0625,-1.65234 1.0625,-3.03125 v -0.64062 c 0,-1.27735 -0.32813,-2.19922 -0.98438,-2.76953 -0.66015,-0.56641 -1.79297,-0.85157 -3.39062,-0.85157 z m 37.10547,31.1875 h -8.8086 v -37.89062 h 26.84766 l -1.38672,7.39453 h -16.65234 v 8.30469 h 15.85156 l -1.38672,7.39843 h -14.46484 v 14.79297"
       id="path36"
       inkscape:connector-curvature="0" />
    <path
       style="fill:#009c54;fill-opacity:1;fill-rule:nonzero;stroke:none"
       d="m 21.089844,443.82422 h 25.519531 c 5.828125,0 10.082031,1.13672 12.761719,3.42187 2.683594,2.28125 4.023437,5.73438 4.023437,10.34766 v 0.85937 c 0,5.70313 -2.292969,9.51954 -6.871093,11.4336 2.65625,0.88672 4.722656,2.36328 6.203124,4.4375 1.484376,2.07422 2.226563,4.82422 2.226563,8.25 v 1.39844 c 0,5.34375 -1.625,9.22265 -4.878906,11.63281 -3.25,2.41406 -7.972657,3.61719 -14.164063,3.61719 H 21.089844 Z M 33.1875,489.41797 h 11.785156 c 2.757813,0 4.695313,-0.45313 5.8125,-1.35938 1.121094,-0.90625 1.679688,-2.57812 1.679688,-5.01562 v -1.01563 c 0,-2.48828 -0.585938,-4.21093 -1.753906,-5.17578 -1.171876,-0.95703 -3.1875,-1.4375 -6.050782,-1.4375 H 33.1875 Z m 0,-35.78906 v 12.05859 h 10.851562 c 2.546876,0 4.34375,-0.46484 5.382813,-1.40234 1.039063,-0.92969 1.558594,-2.41016 1.558594,-4.4336 v -0.93359 c 0,-1.86719 -0.480469,-3.21485 -1.441407,-4.04688 -0.960937,-0.82812 -2.613281,-1.24218 -4.957031,-1.24218 z m 84.85156,9.25781 c 0,4.04687 -0.84765,7.27734 -2.53515,9.6914 -1.69141,2.41016 -4.15235,4.1836 -7.37891,5.32813 l 12.56641,21.31641 h -14.125 L 95.953125,479.77344 h -8.820313 v 19.44922 H 74.566406 v -55.39844 h 22.398438 c 3.746096,0 6.945316,0.30859 9.601566,0.92969 2.65234,0.62109 4.82422,1.60937 6.51562,2.95703 1.6875,1.35156 2.9375,3.10156 3.7461,5.25781 0.80468,2.14844 1.21093,4.75391 1.21093,7.81641 z m -12.64453,-1.32422 c 0,-1.45313 -0.15625,-2.65625 -0.46875,-3.61719 -0.3164,-0.96094 -0.80859,-1.71094 -1.48047,-2.2539 -0.67968,-0.54688 -1.57422,-0.92579 -2.69531,-1.13282 C 99.632812,454.35156 98.238281,454.25 96.574219,454.25 h -9.441407 v 15.40625 h 9.441407 c 1.664062,0 3.058593,-0.10547 4.175781,-0.3125 1.12109,-0.20703 2.01563,-0.59375 2.69531,-1.16406 0.67188,-0.57032 1.16407,-1.33985 1.48047,-2.29688 0.3125,-0.96094 0.46875,-2.1914 0.46875,-3.69922 z m 57.6875,24.27734 h -19.98047 l -4.37109,13.38282 h -12.95313 l 20.05469,-55.39844 h 15.14063 l 20.14062,55.39844 h -13.50391 z m -16.85547,-10.03515 h 13.73438 l -6.94532,-20.6211 z m 68.61719,-9.26172 c 2.70312,0.46484 4.96484,1.11719 6.78516,1.94531 1.82421,0.83203 3.28125,1.88281 4.37109,3.15234 1.09375,1.27344 1.875,2.77344 2.34375,4.51172 0.46875,1.74219 0.69922,3.75 0.69922,6.03516 v 1.16406 c 0,2.80078 -0.36328,5.19922 -1.08985,7.19922 -0.73046,1.99609 -1.95312,3.65234 -3.66796,4.98047 -1.71875,1.32422 -3.98047,2.29297 -6.78907,2.91406 -2.80859,0.625 -6.27343,0.9375 -10.3789,0.9375 -1.19922,0 -2.44922,0 -3.75,0 -1.30078,0 -2.7461,0 -4.33203,0 -1.58594,0 -3.37891,-0.0117 -5.38672,-0.0391 -2,-0.0234 -4.27344,-0.0625 -6.82422,-0.12109 l 1.94922,-10.42579 c 4.10937,0.10547 7.60937,0.15625 10.49609,0.15625 2.88672,0 5.55469,0 8,0 1.71875,0 3.13672,-0.0898 4.25781,-0.27343 1.11328,-0.17969 2,-0.47657 2.64844,-0.89063 0.65234,-0.41406 1.09375,-0.97656 1.32813,-1.67578 0.23437,-0.69922 0.35156,-1.59766 0.35156,-2.68359 0,-0.98438 -0.0664,-1.81641 -0.19531,-2.48828 -0.12891,-0.67579 -0.41797,-1.23438 -0.85938,-1.67579 -0.44141,-0.4414 -1.03906,-0.80468 -1.79687,-1.08984 -0.75,-0.28125 -1.75391,-0.52734 -3.00391,-0.73437 l -8.19141,-1.40235 c -3.01953,-0.51953 -5.49218,-1.17969 -7.41406,-1.98828 -1.92578,-0.80078 -3.44922,-1.82812 -4.56641,-3.07031 -1.12109,-1.2461 -1.88671,-2.72266 -2.30468,-4.4375 -0.41407,-1.71094 -0.6211,-3.70703 -0.6211,-5.98828 v -1.25 c 0,-2.48828 0.36328,-4.69141 1.09375,-6.61328 0.72266,-1.91797 1.92188,-3.55079 3.58594,-4.90235 1.66406,-1.34765 3.83984,-2.37109 6.51563,-3.07422 2.67968,-0.69922 5.94531,-1.04687 9.79687,-1.04687 1.40625,0 2.78516,0 4.13672,0 1.35547,0 2.79687,0 4.33203,0 1.53516,0 3.19922,0.0117 4.99219,0.0391 1.79687,0.0273 3.83984,0.0664 6.1289,0.11719 L 225.53516,454.25 c -4.0625,-0.10547 -7.50782,-0.15625 -10.34375,-0.15625 -2.83594,0 -5.34766,0 -7.53125,0 -1.5586,0 -2.85938,0.0898 -3.90235,0.27344 -1.03906,0.17968 -1.84765,0.46484 -2.41797,0.85156 -0.57422,0.39453 -0.97656,0.92578 -1.21093,1.59766 -0.23047,0.67187 -0.34766,1.50781 -0.34766,2.48828 0,0.88281 0.0625,1.63672 0.19141,2.25781 0.13281,0.62109 0.39062,1.14453 0.78125,1.55859 0.39062,0.41407 0.94921,0.76563 1.67578,1.05078 0.73047,0.28516 1.69531,0.52735 2.88672,0.73829 z m 36.45703,-22.71875 v 55.39844 h -12.875 v -55.39844 z m 24.83203,0 v 44.58594 h 26.14844 l -2.10938,10.8125 h -36.91796 v -55.39844 h 12.8789"
       id="path38"
       inkscape:connector-curvature="0" />
  </g>
  <g
     transform="translate(384.25143,-0.82343234)"
     id="surface1-5">
    <path
       inkscape:connector-curvature="0"
       style="fill:#ffd100;fill-opacity:1;fill-rule:evenodd;stroke:none"
       d="m 123.75391,85.757812 c -6.32422,2.40625 -12.29297,5.511719 -17.98828,9.058594 C 91.972656,103.39063 79.792969,114.34766 67.035156,124.23438 55.214844,133.39453 43.132812,141.48047 29.238281,147 c 1.335938,2.20312 2.539063,4.48047 3.59375,6.85156 6.683594,15.05078 6.4375,34.15235 6.417969,50.24219 -0.02734,24.03125 0.09375,48.05469 0.125,72.08984 0.01563,11.92969 0.179688,24.125 1.257812,36.01563 0.371094,4.08594 1.191407,12.6914 3.066407,16.39453 l 0.175781,0.33203 0.128906,0.35156 c 5.464844,14.75391 14.78125,26.375 29.703125,33.23828 18.148438,7.21875 36.624999,15.03125 53.800779,24.17579 7.75391,4.1289 17.15235,9.5 24.39844,15.625 7.24609,-6.125 16.64844,-11.4961 24.40625,-15.625 17.17187,-9.14454 35.65234,-16.95704 53.80078,-24.17579 14.92188,-6.86328 24.23438,-18.48437 29.70313,-33.23828 l 0.1289,-0.35156 0.16797,-0.33203 c 1.88281,-3.70313 2.69922,-12.30859 3.07031,-16.39453 1.08203,-11.89063 1.2461,-24.08594 1.25782,-36.01563 0.0312,-24.03515 0.15234,-48.05859 0.12109,-72.08984 -0.0195,-16.08984 -0.26172,-35.19141 6.42578,-50.24219 1.04688,-2.37109 2.25391,-4.64844 3.59375,-6.85156 -13.89453,-5.51953 -25.98047,-13.60547 -37.79687,-22.76562 -12.75782,-9.88672 -24.9375,-20.84375 -38.73438,-29.417974 -5.69531,-3.546875 -11.66016,-6.652344 -17.98828,-9.058594 -9.10156,-1.734374 -18.74219,-3.03125 -28.02734,-2.871093 h -0.25391 C 142.5,82.726562 132.85547,84.023438 123.75391,85.757812"
       id="path2-2"
       inkscape:export-filename="G:\Users\suitedoalex\sites\cbf-logo-selecao-logo-brasil-13.png"
       inkscape:export-xdpi="15.908838"
       inkscape:export-ydpi="15.908838" />
    <path
       inkscape:connector-curvature="0"
       style="fill:#005aff;fill-opacity:1;fill-rule:evenodd;stroke:none"
       d="m 126.92969,96.625 c -5.61328,2.234375 -10.90625,5.12891 -15.96094,8.42578 -12.238281,7.98047 -23.046875,18.17969 -34.363281,27.37891 -10.484375,8.52734 -21.210938,16.05468 -33.535157,21.1914 1.183594,2.05078 2.257813,4.17188 3.1875,6.37891 5.929688,14.00391 5.714844,31.78516 5.699219,46.76172 -0.02734,22.36719 0.07813,44.72656 0.105469,67.09375 0.01563,11.10547 0.15625,22.45703 1.117188,33.52344 0.328124,3.79687 1.058593,11.8125 2.726562,15.2539 l 0.148438,0.3125 0.113281,0.32422 c 4.851562,13.73438 13.117187,24.55078 26.355469,30.94141 16.101562,6.71875 32.496092,13.98828 47.738282,22.49609 6.875,3.84766 15.21875,8.84375 21.64453,14.54297 6.43359,-5.69922 14.76953,-10.69531 21.65234,-14.54297 15.23828,-8.50781 31.63282,-15.77734 47.73438,-22.49609 13.24219,-6.39063 21.50781,-17.20703 26.35547,-30.94141 l 0.11718,-0.32422 0.14844,-0.3125 c 1.66797,-3.4414 2.39453,-11.45703 2.72266,-15.2539 0.95703,-11.06641 1.10547,-22.41797 1.12109,-33.52344 0.0273,-22.36719 0.13281,-44.72656 0.10547,-67.09375 -0.0195,-14.97656 -0.23437,-32.75781 5.69531,-46.76172 0.9336,-2.20703 2.00391,-4.32813 3.19141,-6.37891 -12.33203,-5.13672 -23.05078,-12.66406 -33.53906,-21.1914 -11.31641,-9.19922 -22.125,-19.39844 -34.35938,-27.37891 C 187.79687,101.75391 182.5,98.859375 176.88672,96.625 168.81641,95.011719 160.25781,93.796875 152.01953,93.945312 l -0.11328,0.0039 -0.10938,-0.0039 C 143.5625,93.796875 135.00391,95.011719 126.92969,96.625"
       id="path4-5"
       inkscape:export-filename="G:\Users\suitedoalex\sites\cbf-logo-selecao-logo-brasil-13.png"
       inkscape:export-xdpi="15.908838"
       inkscape:export-ydpi="15.908838" />
    <path
       inkscape:connector-curvature="0"
       style="fill:#029c55;fill-opacity:1;fill-rule:evenodd;stroke:none"
       d="m 127.89844,375.41016 c 0.79297,0.42968 1.57812,0.85937 2.36328,1.29687 6.875,3.84766 15.21875,8.84375 21.64453,14.54297 v -95.5 h -24.00781 v 79.66016"
       id="path6-3"
       inkscape:export-filename="G:\Users\suitedoalex\sites\cbf-logo-selecao-logo-brasil-13.png"
       inkscape:export-xdpi="15.908838"
       inkscape:export-ydpi="15.908838" />
    <path
       inkscape:connector-curvature="0"
       style="fill:#029c55;fill-opacity:1;fill-rule:evenodd;stroke:none"
       d="m 175.91797,96.429688 c -7.78906,-1.515626 -15.99219,-2.625 -23.89844,-2.484376 l -0.11328,0.0039 V 164.9453 h 24.01172 V 96.429688"
       id="path8-5"
       inkscape:export-filename="G:\Users\suitedoalex\sites\cbf-logo-selecao-logo-brasil-13.png"
       inkscape:export-xdpi="15.908838"
       inkscape:export-ydpi="15.908838" />
    <path
       inkscape:connector-curvature="0"
       style="fill:#009c54;fill-opacity:1;fill-rule:evenodd;stroke:none"
       d="m 51.953125,208.20703 c -0.0078,7.98047 0.0039,15.95703 0.01953,23.93359 H 82.277344 V 208.20703 H 51.953125"
       id="path10-7"
       inkscape:export-filename="G:\Users\suitedoalex\sites\cbf-logo-selecao-logo-brasil-13.png"
       inkscape:export-xdpi="15.908838"
       inkscape:export-ydpi="15.908838" />
    <path
       inkscape:connector-curvature="0"
       style="fill:#009c54;fill-opacity:1;fill-rule:evenodd;stroke:none"
       d="m 251.78906,256.08203 c 0.0195,-7.98047 0.043,-15.96094 0.0586,-23.94141 h -34.08204 v 23.94141 h 34.02344"
       id="path12-2"
       inkscape:export-filename="G:\Users\suitedoalex\sites\cbf-logo-selecao-logo-brasil-13.png"
       inkscape:export-xdpi="15.908838"
       inkscape:export-ydpi="15.908838" />
    <path
       inkscape:connector-curvature="0"
       style="fill:#1e175e;fill-opacity:1;fill-rule:evenodd;stroke:none"
       d="m 28.660156,206.75391 c -0.8125,-34.94141 -5.453125,-50.04297 -26.644531,-67.88672 53.695313,-2.02735 74.84375,-51.726565 123.136715,-66.000002 0.92188,-0.191407 1.83985,-0.371094 2.7461,-0.535157 v 17.785157 c -0.90235,0.167968 -1.81641,0.347656 -2.7461,0.535156 -34.421871,13.453126 -54.484371,48.105466 -91.578121,59.843746 10.742187,14.57813 12.320312,26.3711 12.160156,56.25782 l 0.03906,25.38671 H 29.105469 c -0.09766,-7.57421 -0.242188,-15.99218 -0.445313,-25.38671 z M 151.90625,70.644531 c 8.45312,-0.464843 17.37109,0.273438 26.75781,2.222657 48.29297,14.273437 69.44141,63.972652 123.13281,66.000002 -21.1875,17.84375 -25.82812,32.94531 -26.64453,67.88672 l -0.0273,1.45312 h -17.04297 l 0.004,-1.45312 c -0.16016,-29.88672 1.41797,-41.67969 12.15625,-56.25782 C 233.14857,138.75781 213.08607,104.10547 178.66419,90.652344 168.422,88.574219 159.50404,87.609375 151.90638,87.746094 Z M 274.71094,232.14062 c -0.8125,61.88282 1.21484,67.33204 -3.01563,86.34766 -1.98437,10.98438 -5.8164,20.875 -11.48828,29.67188 -10.16016,18.29687 -28.22656,30.89062 -54.19141,37.78515 -11.69531,4.75 -21.73046,9.84766 -30.09765,15.28906 v -18.72656 c 12.07422,-6.79687 28.04687,-14.34375 47.92969,-22.64062 14.01953,-6.71094 23.91015,-18.22266 29.67187,-34.53907 2.9375,-6.0664 4.42578,-23.22265 4.45703,-51.46484 l 0.0664,-41.72266 z M 166.07422,408.42187 c -0.22656,0.1875 -0.44922,0.375 -0.67578,0.56641 0.22656,-0.19141 0.44922,-0.37891 0.67578,-0.56641 z m -0.70703,0.59375 c -0.47266,0.39844 -0.9375,0.79688 -1.39453,1.19922 0.45703,-0.40234 0.92187,-0.80078 1.39453,-1.19922 z M 162.5,411.54297 c -0.21094,0.19531 -0.41797,0.38672 -0.62109,0.58203 0.20312,-0.19531 0.41015,-0.38672 0.62109,-0.58203 z m -1.32813,1.2539 c -0.19531,0.1875 -0.38281,0.375 -0.57421,0.5625 0.1914,-0.1875 0.3789,-0.375 0.57421,-0.5625 z m -0.64453,0.62891 c -0.1875,0.1875 -0.375,0.37891 -0.5625,0.57031 0.1875,-0.1914 0.375,-0.38281 0.5625,-0.57031 z m -2.47656,2.57813 c -0.17578,0.1914 -0.34766,0.38671 -0.52344,0.58203 0.17578,-0.19532 0.34766,-0.39063 0.52344,-0.58203 z m -0.56641,0.6289 c -0.17968,0.20313 -0.35937,0.40625 -0.53515,0.60938 0.17578,-0.20313 0.35547,-0.40625 0.53515,-0.60938 z m -0.57421,0.65625 c -0.55079,0.62891 -1.07813,1.26172 -1.58594,1.90235 0.50781,-0.64063 1.03515,-1.27344 1.58594,-1.90235 z m -1.64063,1.96875 c -0.16797,0.20703 -0.33203,0.41406 -0.49219,0.6211 0.16016,-0.20704 0.32422,-0.41407 0.49219,-0.6211 z m -0.50781,0.64063 c -0.16016,0.20312 -0.3125,0.40625 -0.46875,0.60937 0.15625,-0.20312 0.30859,-0.40625 0.46875,-0.60937 z m -1.02344,1.36328 c -0.14844,0.19531 -0.28906,0.39062 -0.42969,0.58594 z m -0.47266,0.64844 c -0.14453,0.19921 -0.28125,0.39843 -0.41796,0.59765 0.13671,-0.19922 0.27734,-0.39844 0.41796,-0.59765 z m -0.48828,0.69921 c -0.14062,0.19922 -0.27734,0.40235 -0.41406,0.60547 0.13672,-0.20312 0.27344,-0.40625 0.41406,-0.60547 z m -0.4414,0.64454 c -0.14453,0.21484 -0.28907,0.4375 -0.42969,0.65234 C 142.53906,409.44141 124.50391,396.78906 97.804688,385.94531 71.832031,379.05078 53.769531,366.45703 43.609375,348.16016 37.9375,339.36328 34.105469,329.47266 32.121094,318.48828 28.523438,302.28125 29.460938,295.92187 29.3125,256.08203 h 16.5 l 0.02734,17.78125 c 0.03516,28.24219 1.519531,45.39844 4.460937,51.46484 5.761719,16.31641 15.648438,27.82813 29.667969,34.53907 39.019534,16.27734 62.996094,29.67578 71.937504,40.18359 v 23.85547 c 0.14062,-0.21484 0.28516,-0.4375 0.42969,-0.65234"
       id="path14-6"
       inkscape:export-filename="G:\Users\suitedoalex\sites\cbf-logo-selecao-logo-brasil-13.png"
       inkscape:export-xdpi="15.908838"
       inkscape:export-ydpi="15.908838" />
    <path
       inkscape:connector-curvature="0"
       style="fill:#ffd100;fill-opacity:1;fill-rule:evenodd;stroke:none"
       d="m 78.167969,256.08203 v -23.94141 h -49.0625 c 0.121093,9.14063 0.179687,17.03516 0.207031,23.94141 h 48.855469"
       id="path16-5"
       inkscape:export-filename="G:\Users\suitedoalex\sites\cbf-logo-selecao-logo-brasil-13.png"
       inkscape:export-xdpi="15.908838"
       inkscape:export-ydpi="15.908838" />
    <path
       inkscape:connector-curvature="0"
       style="fill:#ffd100;fill-opacity:1;fill-rule:evenodd;stroke:none"
       d="m 266.73047,208.20703 h -43.13281 v 23.93359 h 51.11328 c 0.0937,-7.17578 0.22656,-15.125 0.41406,-23.93359 h -8.39453"
       id="path18-8"
       inkscape:export-filename="G:\Users\suitedoalex\sites\cbf-logo-selecao-logo-brasil-13.png"
       inkscape:export-xdpi="15.908838"
       inkscape:export-ydpi="15.908838" />
    <path
       inkscape:connector-curvature="0"
       style="fill:#ffd100;fill-opacity:1;fill-rule:evenodd;stroke:none"
       d="m 127.89844,161.86719 h 24.00781 V 70.644531 c -7.62109,-0.417969 -15.62109,0.140625 -24.00781,1.6875 v 89.535159"
       id="path20-7"
       inkscape:export-filename="G:\Users\suitedoalex\sites\cbf-logo-selecao-logo-brasil-13.png"
       inkscape:export-xdpi="15.908838"
       inkscape:export-ydpi="15.908838" />
    <path
       inkscape:connector-curvature="0"
       style="fill:#ffd100;fill-opacity:1;fill-rule:evenodd;stroke:none"
       d="m 175.91797,391.48828 v -87.70312 h -24.01172 v 120.12109 c 5.26953,-8.13281 13.26953,-15.6875 24.01172,-22.67188 v -9.74609"
       id="path22-0"
       inkscape:export-filename="G:\Users\suitedoalex\sites\cbf-logo-selecao-logo-brasil-13.png"
       inkscape:export-xdpi="15.908838"
       inkscape:export-ydpi="15.908838" />
    <path
       inkscape:connector-curvature="0"
       style="fill:#fffdff;fill-opacity:1;fill-rule:evenodd;stroke:none"
       d="m 102.42969,155.88281 h 98.95703 l -25.46875,28.55469 v 23.76953 h 23.83984 l 28.64063,-25.39453 v 98.66016 l -28.64063,-25.39063 h -23.83984 v 23.76563 l 25.46875,28.55468 h -98.95703 l 25.46875,-28.55468 V 256.08203 H 104.05859 L 75.421875,281.47266 V 182.8125 l 28.636715,25.39453 h 23.83985 V 184.4375 l -25.46875,-28.55469"
       id="path24-7"
       inkscape:export-filename="G:\Users\suitedoalex\sites\cbf-logo-selecao-logo-brasil-13.png"
       inkscape:export-xdpi="15.908838"
       inkscape:export-ydpi="15.908838" />
    <path
       inkscape:connector-curvature="0"
       style="fill:#009c54;fill-opacity:1;fill-rule:evenodd;stroke:none"
       d="m 151.90625,0.5 5.82812,17.996094 18.96485,-0.03516 -15.36328,11.082031 5.89843,17.972656 L 151.90625,36.375 136.58594,47.515625 142.48437,29.542969 127.11719,18.460938 146.08203,18.496094 151.90625,0.5"
       id="path26-0"
       inkscape:export-filename="G:\Users\suitedoalex\sites\cbf-logo-selecao-logo-brasil-13.png"
       inkscape:export-xdpi="15.908838"
       inkscape:export-ydpi="15.908838" />
    <path
       inkscape:connector-curvature="0"
       style="fill:#009c54;fill-opacity:1;fill-rule:evenodd;stroke:none"
       d="m 82.28125,15.714844 5.824219,18 18.968751,-0.03516 L 91.707031,44.761719 97.605469,62.738281 82.28125,51.589844 66.957031,62.738281 72.855469,44.761719 57.488281,33.679688 l 18.96875,0.03516 5.824219,-18"
       id="path28-6"
       inkscape:export-filename="G:\Users\suitedoalex\sites\cbf-logo-selecao-logo-brasil-13.png"
       inkscape:export-xdpi="15.908838"
       inkscape:export-ydpi="15.908838" />
    <path
       inkscape:connector-curvature="0"
       style="fill:#009c54;fill-opacity:1;fill-rule:evenodd;stroke:none"
       d="m 25.34375,59.148438 5.824219,17.996093 18.96875,-0.03516 L 34.769531,88.191406 40.664062,106.16406 25.34375,95.023438 10.023438,106.16406 15.917969,88.191406 0.550781,77.109375 19.515625,77.144531 25.34375,59.148438"
       id="path30-6"
       inkscape:export-filename="G:\Users\suitedoalex\sites\cbf-logo-selecao-logo-brasil-13.png"
       inkscape:export-xdpi="15.908838"
       inkscape:export-ydpi="15.908838" />
    <path
       inkscape:connector-curvature="0"
       style="fill:#009c54;fill-opacity:1;fill-rule:evenodd;stroke:none"
       d="m 221.53516,15.714844 -5.82422,18 -18.96485,-0.03516 15.36328,11.082031 -5.89453,17.976562 15.32032,-11.148437 15.32812,11.148437 -5.89844,-17.976562 15.36719,-11.082031 -18.96875,0.03516 -5.82812,-18"
       id="path32-4"
       inkscape:export-filename="G:\Users\suitedoalex\sites\cbf-logo-selecao-logo-brasil-13.png"
       inkscape:export-xdpi="15.908838"
       inkscape:export-ydpi="15.908838" />
    <path
       inkscape:connector-curvature="0"
       style="fill:#009c54;fill-opacity:1;fill-rule:evenodd;stroke:none"
       d="m 278.47656,59.148438 -5.82422,17.996093 -18.96875,-0.03516 15.36328,11.082031 -5.89453,17.972658 15.32422,-11.140626 15.32031,11.140626 -5.89453,-17.972658 15.36328,-11.082031 -18.96093,0.03516 -5.82813,-17.996093"
       id="path34-7"
       inkscape:export-filename="G:\Users\suitedoalex\sites\cbf-logo-selecao-logo-brasil-13.png"
       inkscape:export-xdpi="15.908838"
       inkscape:export-ydpi="15.908838" />
    <path
       inkscape:connector-curvature="0"
       style="fill:#211c5e;fill-opacity:1;fill-rule:nonzero;stroke:none"
       d="m 112.26953,234.48437 c 0,1.91797 0.11719,3.47657 0.34766,4.6836 0.23047,1.20312 0.66406,2.15625 1.30859,2.84765 0.63672,0.69141 1.51172,1.16407 2.61328,1.41016 1.10157,0.25 2.50782,0.37109 4.21485,0.37109 0.57031,0 1.16797,0 1.79297,0 0.62109,0 1.3125,0 2.07812,0 0.76563,0 1.64453,-0.008 2.64453,-0.0234 0.99219,-0.0195 2.15234,-0.0469 3.46875,-0.082 l -1.44141,7.39843 c -2.20703,0.0703 -3.96874,0.10547 -5.28124,0.10547 -1.32032,0 -2.56641,0 -3.73829,0 -3.16796,0 -5.84765,-0.29297 -8.03125,-0.875 -2.1914,-0.58984 -3.96093,-1.53906 -5.3164,-2.85156 -1.35156,-1.3125 -2.32031,-3.04297 -2.90625,-5.1875 -0.58594,-2.14844 -0.88281,-4.80078 -0.88281,-7.95703 v -4.41797 c 0,-3.12109 0.3125,-5.74219 0.93359,-7.87109 0.625,-2.13282 1.61328,-3.86329 2.96484,-5.19141 1.35157,-1.33203 3.1211,-2.28906 5.3125,-2.87109 2.1836,-0.58985 4.82813,-0.88282 7.92578,-0.88282 0.53125,0 1.1211,0 1.75782,0 0.64453,0 1.36328,0 2.16406,0 0.80078,0 1.70703,0.0117 2.72266,0.0273 1.01171,0.0195 2.17968,0.043 3.49609,0.082 l -1.44141,7.39453 c -1.3164,-0.0352 -2.69531,-0.0625 -4.13672,-0.0781 -1.4414,-0.0195 -2.83984,-0.0273 -4.1914,-0.0273 -1.74219,0 -3.15625,0.125 -4.24219,0.37109 -1.08594,0.25391 -1.94141,0.71094 -2.5625,1.38672 -0.625,0.67188 -1.03906,1.61328 -1.25391,2.82032 -0.21093,1.20703 -0.32031,2.78515 -0.32031,4.73437 z m 24.98438,-21.28515 h 17.45703 c 3.98828,0 6.89453,0.78125 8.72656,2.33984 1.83203,1.5625 2.75,3.92188 2.75,7.07813 v 0.58593 c 0,3.90235 -1.56641,6.51172 -4.69531,7.82422 1.8125,0.60157 3.22656,1.61328 4.24218,3.03125 1.01172,1.41797 1.52344,3.30078 1.52344,5.64063 v 0.96094 c 0,3.65234 -1.11328,6.30468 -3.33984,7.95312 -2.22266,1.65234 -5.45313,2.47656 -9.6875,2.47656 h -16.97656 z m 8.27734,31.18359 h 8.05859 c 1.88672,0 3.21485,-0.30859 3.97657,-0.92969 0.76562,-0.625 1.14843,-1.76562 1.14843,-3.43359 v -0.69141 c 0,-1.70312 -0.39843,-2.88281 -1.20312,-3.53906 -0.79688,-0.65625 -2.17578,-0.98437 -4.13672,-0.98437 h -7.84375 z m 0,-24.48047 v 8.25 h 7.41797 c 1.74219,0 2.97265,-0.32031 3.6875,-0.95703 0.70703,-0.64062 1.0625,-1.65234 1.0625,-3.03125 v -0.64062 c 0,-1.27735 -0.32813,-2.19922 -0.98438,-2.76953 -0.66015,-0.56641 -1.79297,-0.85157 -3.39062,-0.85157 z m 37.10547,31.1875 h -8.8086 v -37.89062 h 26.84766 l -1.38672,7.39453 h -16.65234 v 8.30469 h 15.85156 l -1.38672,7.39843 h -14.46484 v 14.79297"
       id="path36-7"
       inkscape:export-filename="G:\Users\suitedoalex\sites\cbf-logo-selecao-logo-brasil-13.png"
       inkscape:export-xdpi="15.908838"
       inkscape:export-ydpi="15.908838" />
    <g
       transform="translate(364.87822,-2.1213813)"
       id="surface1-0"
       inkscape:export-filename="G:\Users\suitedoalex\sites\cbf-logo-selecao-logo-brasil-14.png"
       inkscape:export-xdpi="16.06452"
       inkscape:export-ydpi="16.06452">
      <path
         inkscape:connector-curvature="0"
         style="fill:#ffd100;fill-opacity:1;fill-rule:evenodd;stroke:none"
         d="m 123.75391,85.757812 c -6.32422,2.40625 -12.29297,5.511719 -17.98828,9.058594 C 91.972656,103.39063 79.792969,114.34766 67.035156,124.23438 55.214844,133.39453 43.132812,141.48047 29.238281,147 c 1.335938,2.20312 2.539063,4.48047 3.59375,6.85156 6.683594,15.05078 6.4375,34.15235 6.417969,50.24219 -0.02734,24.03125 0.09375,48.05469 0.125,72.08984 0.01563,11.92969 0.179688,24.125 1.257812,36.01563 0.371094,4.08594 1.191407,12.6914 3.066407,16.39453 l 0.175781,0.33203 0.128906,0.35156 c 5.464844,14.75391 14.78125,26.375 29.703125,33.23828 18.148438,7.21875 36.624999,15.03125 53.800779,24.17579 7.75391,4.1289 17.15235,9.5 24.39844,15.625 7.24609,-6.125 16.64844,-11.4961 24.40625,-15.625 17.17187,-9.14454 35.65234,-16.95704 53.80078,-24.17579 14.92188,-6.86328 24.23438,-18.48437 29.70313,-33.23828 l 0.1289,-0.35156 0.16797,-0.33203 c 1.88281,-3.70313 2.69922,-12.30859 3.07031,-16.39453 1.08203,-11.89063 1.2461,-24.08594 1.25782,-36.01563 0.0312,-24.03515 0.15234,-48.05859 0.12109,-72.08984 -0.0195,-16.08984 -0.26172,-35.19141 6.42578,-50.24219 1.04688,-2.37109 2.25391,-4.64844 3.59375,-6.85156 -13.89453,-5.51953 -25.98047,-13.60547 -37.79687,-22.76562 -12.75782,-9.88672 -24.9375,-20.84375 -38.73438,-29.417974 -5.69531,-3.546875 -11.66016,-6.652344 -17.98828,-9.058594 -9.10156,-1.734374 -18.74219,-3.03125 -28.02734,-2.871093 h -0.25391 C 142.5,82.726562 132.85547,84.023438 123.75391,85.757812"
         id="path2-7" />
      <path
         inkscape:connector-curvature="0"
         style="fill:#005aff;fill-opacity:1;fill-rule:evenodd;stroke:none"
         d="m 126.92969,96.625 c -5.61328,2.234375 -10.90625,5.12891 -15.96094,8.42578 -12.238281,7.98047 -23.046875,18.17969 -34.363281,27.37891 -10.484375,8.52734 -21.210938,16.05468 -33.535157,21.1914 1.183594,2.05078 2.257813,4.17188 3.1875,6.37891 5.929688,14.00391 5.714844,31.78516 5.699219,46.76172 -0.02734,22.36719 0.07813,44.72656 0.105469,67.09375 0.01563,11.10547 0.15625,22.45703 1.117188,33.52344 0.328124,3.79687 1.058593,11.8125 2.726562,15.2539 l 0.148438,0.3125 0.113281,0.32422 c 4.851562,13.73438 13.117187,24.55078 26.355469,30.94141 16.101562,6.71875 32.496092,13.98828 47.738282,22.49609 6.875,3.84766 15.21875,8.84375 21.64453,14.54297 6.43359,-5.69922 14.76953,-10.69531 21.65234,-14.54297 15.23828,-8.50781 31.63282,-15.77734 47.73438,-22.49609 13.24219,-6.39063 21.50781,-17.20703 26.35547,-30.94141 l 0.11718,-0.32422 0.14844,-0.3125 c 1.66797,-3.4414 2.39453,-11.45703 2.72266,-15.2539 0.95703,-11.06641 1.10547,-22.41797 1.12109,-33.52344 0.0273,-22.36719 0.13281,-44.72656 0.10547,-67.09375 -0.0195,-14.97656 -0.23437,-32.75781 5.69531,-46.76172 0.9336,-2.20703 2.00391,-4.32813 3.19141,-6.37891 -12.33203,-5.13672 -23.05078,-12.66406 -33.53906,-21.1914 -11.31641,-9.19922 -22.125,-19.39844 -34.35938,-27.37891 C 187.79687,101.75391 182.5,98.859375 176.88672,96.625 168.81641,95.011719 160.25781,93.796875 152.01953,93.945312 l -0.11328,0.0039 -0.10938,-0.0039 C 143.5625,93.796875 135.00391,95.011719 126.92969,96.625"
         id="path4-8" />
      <path
         inkscape:connector-curvature="0"
         style="fill:#029c55;fill-opacity:1;fill-rule:evenodd;stroke:none"
         d="m 127.89844,375.41016 c 0.79297,0.42968 1.57812,0.85937 2.36328,1.29687 6.875,3.84766 15.21875,8.84375 21.64453,14.54297 v -95.5 h -24.00781 v 79.66016"
         id="path6-38" />
      <path
         inkscape:connector-curvature="0"
         style="fill:#029c55;fill-opacity:1;fill-rule:evenodd;stroke:none"
         d="m 175.91797,96.429688 c -7.78906,-1.515626 -15.99219,-2.625 -23.89844,-2.484376 l -0.11328,0.0039 V 164.9453 h 24.01172 V 96.429688"
         id="path8-2" />
      <path
         inkscape:connector-curvature="0"
         style="fill:#009c54;fill-opacity:1;fill-rule:evenodd;stroke:none"
         d="m 51.953125,208.20703 c -0.0078,7.98047 0.0039,15.95703 0.01953,23.93359 H 82.277344 V 208.20703 H 51.953125"
         id="path10-0" />
      <path
         inkscape:connector-curvature="0"
         style="fill:#009c54;fill-opacity:1;fill-rule:evenodd;stroke:none"
         d="m 251.78906,256.08203 c 0.0195,-7.98047 0.043,-15.96094 0.0586,-23.94141 h -34.08204 v 23.94141 h 34.02344"
         id="path12-6" />
      <path
         inkscape:connector-curvature="0"
         style="fill:#1e175e;fill-opacity:1;fill-rule:evenodd;stroke:none"
         d="m 28.660156,206.75391 c -0.8125,-34.94141 -5.453125,-50.04297 -26.644531,-67.88672 53.695313,-2.02735 74.84375,-51.726565 123.136715,-66.000002 0.92188,-0.191407 1.83985,-0.371094 2.7461,-0.535157 v 17.785157 c -0.90235,0.167968 -1.81641,0.347656 -2.7461,0.535156 -34.421871,13.453126 -54.484371,48.105466 -91.578121,59.843746 10.742187,14.57813 12.320312,26.3711 12.160156,56.25782 l 0.03906,25.38671 H 29.105469 c -0.09766,-7.57421 -0.242188,-15.99218 -0.445313,-25.38671 z M 151.90625,70.644531 c 8.45312,-0.464843 17.37109,0.273438 26.75781,2.222657 48.29297,14.273437 69.44141,63.972652 123.13281,66.000002 -21.1875,17.84375 -25.82812,32.94531 -26.64453,67.88672 l -0.0273,1.45312 h -17.04297 l 0.004,-1.45312 c -0.16016,-29.88672 1.41797,-41.67969 12.15625,-56.25782 C 233.14857,138.75781 213.08607,104.10547 178.66419,90.652344 168.422,88.574219 159.50404,87.609375 151.90638,87.746094 Z M 274.71094,232.14062 c -0.8125,61.88282 1.21484,67.33204 -3.01563,86.34766 -1.98437,10.98438 -5.8164,20.875 -11.48828,29.67188 -10.16016,18.29687 -28.22656,30.89062 -54.19141,37.78515 -11.69531,4.75 -21.73046,9.84766 -30.09765,15.28906 v -18.72656 c 12.07422,-6.79687 28.04687,-14.34375 47.92969,-22.64062 14.01953,-6.71094 23.91015,-18.22266 29.67187,-34.53907 2.9375,-6.0664 4.42578,-23.22265 4.45703,-51.46484 l 0.0664,-41.72266 z M 166.07422,408.42187 c -0.22656,0.1875 -0.44922,0.375 -0.67578,0.56641 0.22656,-0.19141 0.44922,-0.37891 0.67578,-0.56641 z m -0.70703,0.59375 c -0.47266,0.39844 -0.9375,0.79688 -1.39453,1.19922 0.45703,-0.40234 0.92187,-0.80078 1.39453,-1.19922 z M 162.5,411.54297 c -0.21094,0.19531 -0.41797,0.38672 -0.62109,0.58203 0.20312,-0.19531 0.41015,-0.38672 0.62109,-0.58203 z m -1.32813,1.2539 c -0.19531,0.1875 -0.38281,0.375 -0.57421,0.5625 0.1914,-0.1875 0.3789,-0.375 0.57421,-0.5625 z m -0.64453,0.62891 c -0.1875,0.1875 -0.375,0.37891 -0.5625,0.57031 0.1875,-0.1914 0.375,-0.38281 0.5625,-0.57031 z m -2.47656,2.57813 c -0.17578,0.1914 -0.34766,0.38671 -0.52344,0.58203 0.17578,-0.19532 0.34766,-0.39063 0.52344,-0.58203 z m -0.56641,0.6289 c -0.17968,0.20313 -0.35937,0.40625 -0.53515,0.60938 0.17578,-0.20313 0.35547,-0.40625 0.53515,-0.60938 z m -0.57421,0.65625 c -0.55079,0.62891 -1.07813,1.26172 -1.58594,1.90235 0.50781,-0.64063 1.03515,-1.27344 1.58594,-1.90235 z m -1.64063,1.96875 c -0.16797,0.20703 -0.33203,0.41406 -0.49219,0.6211 0.16016,-0.20704 0.32422,-0.41407 0.49219,-0.6211 z m -0.50781,0.64063 c -0.16016,0.20312 -0.3125,0.40625 -0.46875,0.60937 0.15625,-0.20312 0.30859,-0.40625 0.46875,-0.60937 z m -1.02344,1.36328 c -0.14844,0.19531 -0.28906,0.39062 -0.42969,0.58594 z m -0.47266,0.64844 c -0.14453,0.19921 -0.28125,0.39843 -0.41796,0.59765 0.13671,-0.19922 0.27734,-0.39844 0.41796,-0.59765 z m -0.48828,0.69921 c -0.14062,0.19922 -0.27734,0.40235 -0.41406,0.60547 0.13672,-0.20312 0.27344,-0.40625 0.41406,-0.60547 z m -0.4414,0.64454 c -0.14453,0.21484 -0.28907,0.4375 -0.42969,0.65234 C 142.53906,409.44141 124.50391,396.78906 97.804688,385.94531 71.832031,379.05078 53.769531,366.45703 43.609375,348.16016 37.9375,339.36328 34.105469,329.47266 32.121094,318.48828 28.523438,302.28125 29.460938,295.92187 29.3125,256.08203 h 16.5 l 0.02734,17.78125 c 0.03516,28.24219 1.519531,45.39844 4.460937,51.46484 5.761719,16.31641 15.648438,27.82813 29.667969,34.53907 39.019534,16.27734 62.996094,29.67578 71.937504,40.18359 v 23.85547 c 0.14062,-0.21484 0.28516,-0.4375 0.42969,-0.65234"
         id="path14-0" />
      <path
         inkscape:connector-curvature="0"
         style="fill:#ffd100;fill-opacity:1;fill-rule:evenodd;stroke:none"
         d="m 78.167969,256.08203 v -23.94141 h -49.0625 c 0.121093,9.14063 0.179687,17.03516 0.207031,23.94141 h 48.855469"
         id="path16-2" />
      <path
         inkscape:connector-curvature="0"
         style="fill:#ffd100;fill-opacity:1;fill-rule:evenodd;stroke:none"
         d="m 266.73047,208.20703 h -43.13281 v 23.93359 h 51.11328 c 0.0937,-7.17578 0.22656,-15.125 0.41406,-23.93359 h -8.39453"
         id="path18-9" />
      <path
         inkscape:connector-curvature="0"
         style="fill:#ffd100;fill-opacity:1;fill-rule:evenodd;stroke:none"
         d="m 127.89844,161.86719 h 24.00781 V 70.644531 c -7.62109,-0.417969 -15.62109,0.140625 -24.00781,1.6875 v 89.535159"
         id="path20-4" />
      <path
         inkscape:connector-curvature="0"
         style="fill:#ffd100;fill-opacity:1;fill-rule:evenodd;stroke:none"
         d="m 175.91797,391.48828 v -87.70312 h -24.01172 v 120.12109 c 5.26953,-8.13281 13.26953,-15.6875 24.01172,-22.67188 v -9.74609"
         id="path22-4" />
      <path
         inkscape:connector-curvature="0"
         style="fill:#fffdff;fill-opacity:1;fill-rule:evenodd;stroke:none"
         d="m 102.42969,155.88281 h 98.95703 l -25.46875,28.55469 v 23.76953 h 23.83984 l 28.64063,-25.39453 v 98.66016 l -28.64063,-25.39063 h -23.83984 v 23.76563 l 25.46875,28.55468 h -98.95703 l 25.46875,-28.55468 V 256.08203 H 104.05859 L 75.421875,281.47266 V 182.8125 l 28.636715,25.39453 h 23.83985 V 184.4375 l -25.46875,-28.55469"
         id="path24-4" />
      <path
         inkscape:connector-curvature="0"
         style="fill:#211c5e;fill-opacity:1;fill-rule:nonzero;stroke:none"
         d="m 112.26953,234.48437 c 0,1.91797 0.11719,3.47657 0.34766,4.6836 0.23047,1.20312 0.66406,2.15625 1.30859,2.84765 0.63672,0.69141 1.51172,1.16407 2.61328,1.41016 1.10157,0.25 2.50782,0.37109 4.21485,0.37109 0.57031,0 1.16797,0 1.79297,0 0.62109,0 1.3125,0 2.07812,0 0.76563,0 1.64453,-0.008 2.64453,-0.0234 0.99219,-0.0195 2.15234,-0.0469 3.46875,-0.082 l -1.44141,7.39843 c -2.20703,0.0703 -3.96874,0.10547 -5.28124,0.10547 -1.32032,0 -2.56641,0 -3.73829,0 -3.16796,0 -5.84765,-0.29297 -8.03125,-0.875 -2.1914,-0.58984 -3.96093,-1.53906 -5.3164,-2.85156 -1.35156,-1.3125 -2.32031,-3.04297 -2.90625,-5.1875 -0.58594,-2.14844 -0.88281,-4.80078 -0.88281,-7.95703 v -4.41797 c 0,-3.12109 0.3125,-5.74219 0.93359,-7.87109 0.625,-2.13282 1.61328,-3.86329 2.96484,-5.19141 1.35157,-1.33203 3.1211,-2.28906 5.3125,-2.87109 2.1836,-0.58985 4.82813,-0.88282 7.92578,-0.88282 0.53125,0 1.1211,0 1.75782,0 0.64453,0 1.36328,0 2.16406,0 0.80078,0 1.70703,0.0117 2.72266,0.0273 1.01171,0.0195 2.17968,0.043 3.49609,0.082 l -1.44141,7.39453 c -1.3164,-0.0352 -2.69531,-0.0625 -4.13672,-0.0781 -1.4414,-0.0195 -2.83984,-0.0273 -4.1914,-0.0273 -1.74219,0 -3.15625,0.125 -4.24219,0.37109 -1.08594,0.25391 -1.94141,0.71094 -2.5625,1.38672 -0.625,0.67188 -1.03906,1.61328 -1.25391,2.82032 -0.21093,1.20703 -0.32031,2.78515 -0.32031,4.73437 z m 24.98438,-21.28515 h 17.45703 c 3.98828,0 6.89453,0.78125 8.72656,2.33984 1.83203,1.5625 2.75,3.92188 2.75,7.07813 v 0.58593 c 0,3.90235 -1.56641,6.51172 -4.69531,7.82422 1.8125,0.60157 3.22656,1.61328 4.24218,3.03125 1.01172,1.41797 1.52344,3.30078 1.52344,5.64063 v 0.96094 c 0,3.65234 -1.11328,6.30468 -3.33984,7.95312 -2.22266,1.65234 -5.45313,2.47656 -9.6875,2.47656 h -16.97656 z m 8.27734,31.18359 h 8.05859 c 1.88672,0 3.21485,-0.30859 3.97657,-0.92969 0.76562,-0.625 1.14843,-1.76562 1.14843,-3.43359 v -0.69141 c 0,-1.70312 -0.39843,-2.88281 -1.20312,-3.53906 -0.79688,-0.65625 -2.17578,-0.98437 -4.13672,-0.98437 h -7.84375 z m 0,-24.48047 v 8.25 h 7.41797 c 1.74219,0 2.97265,-0.32031 3.6875,-0.95703 0.70703,-0.64062 1.0625,-1.65234 1.0625,-3.03125 v -0.64062 c 0,-1.27735 -0.32813,-2.19922 -0.98438,-2.76953 -0.66015,-0.56641 -1.79297,-0.85157 -3.39062,-0.85157 z m 37.10547,31.1875 h -8.8086 v -37.89062 h 26.84766 l -1.38672,7.39453 h -16.65234 v 8.30469 h 15.85156 l -1.38672,7.39843 h -14.46484 v 14.79297"
         id="path36-77" />
    </g>
  </g>
</svg>
